<svg xmlns="http://www.w3.org/2000/svg" viewBox="-162.5 0 2080 2080"><g transform="translate(0.000000,2080.000000) scale(0.100000,-0.100000)"
fill="#fff" stroke="none">
<path d="M8255 19973 c-2667 -49 -4806 -500 -6235 -1315 -153 -88 -459 -294
-580 -391 -270 -217 -526 -493 -596 -642 l-24 -50 0 -7253 c0 -6170 2 -7257
14 -7285 34 -78 339 -330 646 -534 258 -171 469 -290 810 -457 1348 -659 3085
-1065 5095 -1191 1582 -99 3234 -27 4615 200 1456 239 2747 664 3725 1225 423
243 954 644 1002 757 11 27 13 1233 13 7285 l0 7253 -24 50 c-116 246 -550
650 -997 929 -1586 990 -4164 1480 -7464 1419z m1395 -524 c1990 -69 3723
-395 4998 -938 667 -285 1037 -527 1320 -866 167 -199 258 -376 282 -543 5
-40 10 -1065 11 -2532 l1 -2465 -26 -100 c-81 -311 -354 -658 -772 -982 l-111
-86 66 -45 c384 -261 666 -683 784 -1173 53 -217 62 -304 61 -589 0 -240 -3
-278 -27 -410 -45 -250 -115 -465 -219 -674 -185 -370 -428 -622 -895 -931
-70 -46 -88 -65 -60 -65 24 0 252 -118 342 -177 395 -260 668 -657 791 -1153
53 -215 66 -319 71 -597 9 -433 -32 -734 -148 -1086 -236 -718 -770 -1263
-1576 -1606 -323 -137 -942 -327 -1490 -456 -692 -162 -1551 -299 -2388 -379
-166 -16 -1325 -79 -1332 -73 -2 2 182 147 409 322 227 175 417 321 421 325 5
4 -154 135 -354 291 l-362 284 344 22 c941 59 1388 104 1964 194 770 120 1383
267 1975 471 411 141 487 174 602 260 294 222 486 599 539 1058 16 140 6 393
-20 536 -98 530 -429 879 -934 985 -81 17 -135 22 -262 21 -182 -1 -211 -6
-636 -115 -790 -202 -1716 -350 -2679 -427 l-505 -40 -1110 0 c-1146 0 -1240
3 -1710 45 -1183 107 -2379 350 -3577 727 l-228 71 0 615 c0 525 2 613 14 609
55 -21 445 -141 656 -202 983 -282 2025 -476 3126 -580 415 -39 1278 -75 1814
-75 1396 0 2762 150 4045 445 438 100 1043 269 1183 329 359 154 651 467 767
821 139 427 76 891 -166 1215 -223 299 -541 450 -944 450 -170 0 -275 -17
-595 -95 -1307 -317 -2608 -466 -4074 -465 l-451 1 -278 414 c-153 228 -275
420 -272 425 3 6 23 10 43 10 20 0 73 6 117 14 171 30 318 76 670 209 347 131
351 132 775 152 446 20 1225 88 1725 151 752 93 1477 235 2093 409 412 116
968 317 1317 473 l110 50 3 1726 2 1727 -62 -35 c-464 -257 -1437 -566 -2348
-745 -425 -83 -751 -132 -1455 -217 -291 -36 -350 -40 -513 -36 l-137 4 -53
117 c-98 220 -229 436 -368 610 -75 93 -235 256 -312 316 -28 22 -51 43 -52
46 -1 16 285 42 435 40 88 -1 207 3 265 9 58 6 246 24 419 40 884 84 1589 200
2276 375 540 137 927 273 1275 446 316 158 444 258 513 398 29 60 32 74 32
161 0 85 -3 101 -29 150 -40 77 -162 195 -283 274 -507 332 -1656 660 -2958
845 -925 132 -1618 168 -3045 158 -627 -4 -677 -6 -1175 -40 -733 -52 -1047
-82 -1460 -143 -1276 -187 -2303 -491 -2811 -830 -179 -120 -254 -198 -290
-306 l-15 -47 -52 16 c-93 27 -250 92 -357 146 -219 111 -393 233 -604 424
l-129 117 111 108 c356 342 891 634 1672 913 1592 568 3844 839 6270 754z
m-8228 -2390 c606 -480 1469 -828 2783 -1123 926 -208 1965 -340 3215 -411
580 -32 709 -48 940 -114 249 -72 571 -216 755 -338 481 -319 756 -784 847
-1433 17 -127 17 -583 -1 -710 -71 -505 -262 -903 -596 -1235 -240 -240 -521
-411 -861 -524 -348 -115 -642 -155 -1244 -169 l-295 -7 1188 -1745 1188
-1745 -453 -3 c-516 -4 -1177 13 -1194 32 -6 6 -564 823 -1239 1816 -674 993
-1232 1810 -1238 1817 -7 7 -86 21 -177 33 -543 69 -1140 171 -1675 286 -199
43 -659 148 -699 161 -18 5 -18 -46 -11 -2313 5 -1616 4 -2316 -4 -2309 -5 6
-317 458 -691 1005 l-682 995 6 110 c3 61 6 1891 6 4068 l0 3959 24 -19 c13
-10 62 -48 108 -84z m2666 -6288 c436 -76 795 -141 796 -142 6 -6 506 -720
522 -744 14 -22 14 -23 -3 -19 -10 2 -106 20 -213 39 -538 99 -1111 248 -1677
437 l-273 91 0 244 0 245 28 -6 c15 -4 384 -69 820 -145z m-2115 -3717 l675
-971 11 -1057 12 -1058 31 -27 c129 -110 352 -239 558 -322 349 -140 1003
-340 1487 -454 632 -148 1063 -216 1963 -310 289 -31 593 -64 675 -75 169 -22
319 -25 428 -9 l74 11 7 52 c3 28 6 129 6 224 0 105 4 172 9 170 6 -1 318
-241 694 -532 l685 -530 -147 -112 c-914 -702 -1227 -941 -1231 -937 -3 3 -7
94 -10 203 -3 109 -8 201 -11 204 -3 4 -163 15 -355 26 -536 30 -847 58 -1264
110 -1417 181 -2817 538 -3685 943 -405 188 -683 371 -905 596 -138 140 -229
261 -296 393 -70 140 -85 207 -90 398 -8 323 -10 4050 -3 4043 4 -4 311 -445
682 -979z M2667 14873 c-4 -120 -7 -610 -7 -1090 l0 -872 38 -10 c781 -206
1734 -385 2642 -495 866 -106 1990 -173 2282 -137 272 35 478 127 639 286 347
343 385 944 84 1335 -58 75 -169 177 -238 218 -182 110 -337 145 -723 167
-727 40 -1150 80 -1864 174 -963 128 -1453 223 -2133 416 -175 50 -622 191
-703 222 -7 3 -13 -63 -17 -214z"/>
</g></svg>